# xmcd
#
# Track frame offsets:
#	150
#	10212
#	54863
#	68201
#	110607
#	146497
#	191607
#	239679
#	255953
#	285166
#	292667
#
# Disc length: 4563 seconds
#
# Revision: 1
# Processed by: cddbd v1.5.2PL0 Copyright (c) Steve Scherf et al.
# Submitted via: audiograbber 1.83.01
#
DISCID=9211d10b
DTITLE=Grateful Dead - 78-01-08 Golden Hall, Community Concourse, San Diego CA
DYEAR=1900
DGENRE=
TTITLE0=Tuning
TTITLE1=Jack Straw
TTITLE2=Mama Tried
TTITLE3=Big River
TTITLE4=Sunrise
TTITLE5=It's All Over Now
TTITLE6=Looks Like Rain
TTITLE7=Lazy Lightning
TTITLE8=Supplication
TTITLE9=Tuning
TTITLE10=Samson and Delilah
EXTD=
EXTT0=
EXTT1=
EXTT2=
EXTT3=
EXTT4=
EXTT5=
EXTT6=
EXTT7=
EXTT8=
EXTT9=
EXTT10=
PLAYORDER=
